<svg width="20" height="20" viewBox="0 0 20 20" fill="none" xmlns="http://www.w3.org/2000/svg">
<path fill-rule="evenodd" clip-rule="evenodd" d="M14.43 10.864C14.2453 10.864 14.0641 10.8783 13.8871 10.9053L11.5257 5.83059C12.338 5.76753 13.6969 5.57304 14.3138 4.9733C15.1724 4.13845 15.2235 1.90609 15.2266 1.6543L15.2313 1.25L14.8154 1.25466C14.5564 1.25759 12.2602 1.30722 11.4016 2.14206C11.1158 2.41992 10.9199 2.85291 10.7849 3.31594C10.6501 2.85291 10.4541 2.41992 10.1683 2.14206C9.30969 1.30722 7.01347 1.25759 6.75449 1.25466L6.33864 1.25L6.34344 1.6543C6.34644 1.90617 6.39749 4.13845 7.25619 4.97338C7.85745 5.55787 9.16281 5.75725 9.98069 5.82537L6.27158 12.0394C6.04488 11.9942 5.81021 11.9704 5.57001 11.9704C3.64754 11.9704 2.08337 13.491 2.08337 15.3602C2.08337 17.2294 3.64746 18.75 5.57001 18.75C7.49256 18.75 9.05665 17.2294 9.05665 15.3602C9.05665 14.2916 8.54488 13.3375 7.74763 12.7157L10.6684 7.8224L12.3847 11.5111C11.5122 12.1278 10.9434 13.1272 10.9434 14.2538C10.9434 16.1229 12.5075 17.6436 14.4301 17.6436C16.3526 17.6436 17.9167 16.123 17.9167 14.2538C17.9167 12.3847 16.3525 10.864 14.43 10.864Z" fill="white"/>
</svg>
