<svg width="67" height="35" viewBox="0 0 67 35" fill="none" xmlns="http://www.w3.org/2000/svg">
<path d="M19.1165 9.203L19.3505 8.852C19.7145 8.34933 20.0005 7.955 20.2085 7.669C20.4165 7.383 20.5855 7.15767 20.7155 6.993C20.8455 6.81967 20.9582 6.68967 21.0535 6.603C21.1488 6.51633 21.2615 6.42533 21.3915 6.33C21.5995 6.18267 21.7945 6.15233 21.9765 6.239C22.1585 6.317 22.2755 6.486 22.3275 6.746C22.3535 6.91067 22.3665 7.07967 22.3665 7.253C22.3752 7.41767 22.3665 7.58233 22.3405 7.747C22.2625 8.25833 22.1845 8.73933 22.1065 9.19C22.0285 9.64067 21.9505 10.0957 21.8725 10.555C21.7945 11.0143 21.7165 11.4997 21.6385 12.011C21.5605 12.5223 21.4868 13.09 21.4175 13.714C21.4002 13.8873 21.3872 14.0607 21.3785 14.234C21.3698 14.4073 21.4002 14.5807 21.4695 14.754C21.5042 14.8493 21.5042 14.936 21.4695 15.014C21.4348 15.1007 21.3828 15.1743 21.3135 15.235C21.1662 15.3043 21.0232 15.313 20.8845 15.261C20.7458 15.2177 20.6288 15.105 20.5335 14.923C20.4468 14.741 20.3905 14.4767 20.3645 14.13C20.3385 13.792 20.3645 13.363 20.4425 12.843C20.5292 12.2797 20.6245 11.699 20.7285 11.101C20.8412 10.503 20.9452 9.957 21.0405 9.463C21.1358 8.969 21.2095 8.566 21.2615 8.254C21.3222 7.942 21.3482 7.79467 21.3395 7.812C21.0362 8.24533 20.7848 8.59633 20.5855 8.865C20.3948 9.13367 20.2388 9.35467 20.1175 9.528C19.9962 9.69267 19.8965 9.827 19.8185 9.931C19.7492 10.0263 19.6798 10.1173 19.6105 10.204C19.5498 10.2907 19.4848 10.386 19.4155 10.49C19.3462 10.594 19.2508 10.737 19.1295 10.919C18.9995 11.1183 18.8695 11.2527 18.7395 11.322C18.6182 11.3913 18.5055 11.4173 18.4015 11.4C18.2975 11.374 18.2108 11.3133 18.1415 11.218C18.0722 11.1227 18.0288 11.0057 18.0115 10.867C17.9942 10.7803 17.9898 10.6937 17.9985 10.607C18.0072 10.5203 18.0158 10.4293 18.0245 10.334C18.0938 9.398 18.1285 8.71767 18.1285 8.293C18.1372 7.85967 18.1328 7.63867 18.1155 7.63C17.9335 7.95933 17.7558 8.31467 17.5825 8.696C17.4178 9.06867 17.2272 9.528 17.0105 10.074C16.8025 10.6113 16.5598 11.257 16.2825 12.011C16.0138 12.7563 15.6888 13.6663 15.3075 14.741C15.2728 14.845 15.2252 14.9577 15.1645 15.079C15.1038 15.183 15.0172 15.248 14.9045 15.274C14.7918 15.3 14.6878 15.287 14.5925 15.235C14.4885 15.1917 14.4148 15.1093 14.3715 14.988C14.3195 14.8753 14.3238 14.728 14.3845 14.546C14.6792 13.6967 14.9218 12.986 15.1125 12.414C15.3118 11.8333 15.4765 11.348 15.6065 10.958C15.7452 10.5593 15.8622 10.23 15.9575 9.97C16.0615 9.70133 16.1612 9.45433 16.2565 9.229C16.3605 8.995 16.4732 8.75667 16.5945 8.514C16.7245 8.26267 16.8805 7.95933 17.0625 7.604C17.1492 7.43933 17.2445 7.28333 17.3485 7.136C17.4525 6.98867 17.5652 6.84567 17.6865 6.707C17.8078 6.58567 17.9378 6.49033 18.0765 6.421C18.2152 6.35167 18.3712 6.35167 18.5445 6.421C18.7092 6.49033 18.8262 6.59 18.8955 6.72C18.9735 6.84133 19.0212 7.01033 19.0385 7.227C19.0645 7.435 19.0732 7.69933 19.0645 8.02C19.0558 8.34067 19.0515 8.722 19.0515 9.164C19.0688 9.17267 19.0775 9.18133 19.0775 9.19C19.0862 9.19 19.0992 9.19433 19.1165 9.203ZM23.0259 12.96C23.0953 13.012 23.2036 13.0163 23.3509 12.973C23.5069 12.9297 23.6803 12.856 23.8709 12.752C24.0703 12.6393 24.2826 12.505 24.5079 12.349C24.7333 12.1843 24.9499 12.0197 25.1579 11.855C25.3746 11.6817 25.5783 11.5127 25.7689 11.348C25.9596 11.1747 26.1199 11.0187 26.2499 10.88C26.2673 10.8627 26.2846 10.841 26.3019 10.815C26.3193 10.789 26.3366 10.7673 26.3539 10.75C26.4579 10.6373 26.5663 10.5723 26.6789 10.555C26.8003 10.5377 26.8999 10.555 26.9779 10.607C27.0646 10.6503 27.1209 10.7283 27.1469 10.841C27.1816 10.945 27.1686 11.062 27.1079 11.192C27.0386 11.3393 26.9519 11.4737 26.8479 11.595C26.4839 11.9937 26.1156 12.349 25.7429 12.661C25.3789 12.9643 25.0279 13.2243 24.6899 13.441C24.3606 13.649 24.0573 13.8137 23.7799 13.935C23.5026 14.0477 23.2729 14.1083 23.0909 14.117C22.9609 14.1517 22.8353 14.1517 22.7139 14.117C22.5926 14.0823 22.4799 14.026 22.3759 13.948C22.2719 13.87 22.1896 13.7747 22.1289 13.662C22.0596 13.5493 22.0206 13.428 22.0119 13.298C21.9859 13.09 22.0033 12.8993 22.0639 12.726C22.0813 12.6653 22.1159 12.557 22.1679 12.401C22.2199 12.245 22.2806 12.0673 22.3499 11.868C22.4193 11.66 22.4973 11.4477 22.5839 11.231C22.6619 11.0057 22.7356 10.7933 22.8049 10.594C22.8829 10.386 22.9523 10.2083 23.0129 10.061C23.0736 9.905 23.1169 9.79667 23.1429 9.736C23.2903 9.46733 23.4766 9.36767 23.7019 9.437C23.8233 9.48033 23.9056 9.55833 23.9489 9.671C24.0009 9.775 24.0009 9.90067 23.9489 10.048C23.8796 10.2473 23.8233 10.4077 23.7799 10.529C23.7366 10.6417 23.6976 10.7413 23.6629 10.828C23.6283 10.9147 23.5936 11.0013 23.5589 11.088C23.5243 11.1747 23.4853 11.2873 23.4419 11.426C23.3986 11.5647 23.3423 11.738 23.2729 11.946C23.2123 12.154 23.1343 12.4227 23.0389 12.752C23.0216 12.778 23.0129 12.8083 23.0129 12.843C23.0216 12.869 23.0259 12.908 23.0259 12.96ZM23.7409 8.41C23.8189 8.098 23.9186 7.786 24.0399 7.474C24.1613 7.162 24.3389 6.876 24.5729 6.616C24.6683 6.512 24.7723 6.45567 24.8849 6.447C24.9976 6.43833 25.1016 6.46867 25.1969 6.538C25.3963 6.70267 25.4049 6.915 25.2229 7.175C24.9369 7.57367 24.7549 8.02433 24.6769 8.527C24.6249 8.87367 24.4646 9.034 24.1959 9.008C24.0659 8.99067 23.9576 8.93 23.8709 8.826C23.7843 8.71333 23.7409 8.57467 23.7409 8.41ZM28.2461 11.543C27.9341 11.803 27.6828 12.0067 27.4921 12.154C27.3015 12.3013 27.1455 12.4227 27.0241 12.518C26.9028 12.6047 26.8075 12.6783 26.7381 12.739C26.6775 12.791 26.6168 12.8517 26.5561 12.921C26.5041 12.9817 26.4391 13.064 26.3611 13.168C26.2918 13.2633 26.1921 13.402 26.0621 13.584C25.9408 13.7833 25.8108 13.9177 25.6721 13.987C25.5248 14.0563 25.3515 14.013 25.1521 13.857C25.0741 13.7963 25.0221 13.727 24.9961 13.649C24.9701 13.571 24.9658 13.493 24.9831 13.415C24.9918 13.337 25.0135 13.259 25.0481 13.181C25.0828 13.103 25.1175 13.0293 25.1521 12.96C25.1521 12.9513 25.1868 12.8863 25.2561 12.765C25.3168 12.6437 25.3948 12.492 25.4901 12.31C25.5768 12.128 25.6765 11.933 25.7891 11.725C25.8931 11.517 25.9928 11.322 26.0881 11.14C26.1835 10.958 26.2615 10.8063 26.3221 10.685C26.3915 10.555 26.4305 10.4857 26.4391 10.477C26.5085 10.3817 26.5908 10.321 26.6861 10.295C26.7815 10.269 26.8725 10.2733 26.9591 10.308C27.0458 10.334 27.1108 10.3903 27.1541 10.477C27.2061 10.5637 27.2235 10.6677 27.2061 10.789C27.1888 10.841 27.1715 10.8973 27.1541 10.958C27.1368 11.01 27.1151 11.0793 27.0891 11.166C27.3578 11.01 27.5875 10.8627 27.7781 10.724C27.9688 10.5767 28.1378 10.464 28.2851 10.386C28.4411 10.2993 28.5798 10.2473 28.7011 10.23C28.8311 10.2127 28.9611 10.2473 29.0911 10.334C29.2558 10.4467 29.3511 10.594 29.3771 10.776C29.4031 10.9493 29.3988 11.1357 29.3641 11.335C29.3295 11.5343 29.2861 11.738 29.2341 11.946C29.1908 12.154 29.1778 12.3447 29.1951 12.518C29.2125 12.6133 29.2558 12.7087 29.3251 12.804C29.4031 12.8907 29.4898 12.921 29.5851 12.895C29.7758 12.8257 29.9578 12.7217 30.1311 12.583C30.3131 12.4443 30.4735 12.3013 30.6121 12.154C30.7508 11.998 30.8678 11.8507 30.9631 11.712C31.0671 11.5733 31.1451 11.465 31.1971 11.387C31.2751 11.2223 31.3705 11.1183 31.4831 11.075C31.5958 11.023 31.6998 11.0143 31.7951 11.049C31.8991 11.075 31.9771 11.1357 32.0291 11.231C32.0898 11.3263 32.1071 11.439 32.0811 11.569C32.0465 11.725 31.9815 11.8723 31.8861 12.011C31.7995 12.1497 31.7345 12.2407 31.6911 12.284C31.5265 12.4573 31.3791 12.6177 31.2491 12.765C31.1191 12.9037 30.9891 13.0337 30.8591 13.155C30.7378 13.2677 30.6078 13.3717 30.4691 13.467C30.3305 13.5537 30.1788 13.636 30.0141 13.714C29.7541 13.8353 29.5071 13.8787 29.2731 13.844C29.0478 13.8093 28.8528 13.7227 28.6881 13.584C28.5235 13.4453 28.3978 13.2633 28.3111 13.038C28.2245 12.804 28.1941 12.544 28.2201 12.258C28.2375 12.1453 28.2548 12.037 28.2721 11.933C28.2895 11.8203 28.3068 11.7077 28.3241 11.595C28.3068 11.5777 28.2808 11.5603 28.2461 11.543ZM31.7603 12.96C31.8296 13.012 31.938 13.0163 32.0853 12.973C32.2413 12.9297 32.4146 12.856 32.6053 12.752C32.8046 12.6393 33.017 12.505 33.2423 12.349C33.4676 12.1843 33.6843 12.0197 33.8923 11.855C34.109 11.6817 34.3126 11.5127 34.5033 11.348C34.694 11.1747 34.8543 11.0187 34.9843 10.88C35.0016 10.8627 35.019 10.841 35.0363 10.815C35.0536 10.789 35.071 10.7673 35.0883 10.75C35.1923 10.6373 35.3006 10.5723 35.4133 10.555C35.5346 10.5377 35.6343 10.555 35.7123 10.607C35.799 10.6503 35.8553 10.7283 35.8813 10.841C35.916 10.945 35.903 11.062 35.8423 11.192C35.773 11.3393 35.6863 11.4737 35.5823 11.595C35.2183 11.9937 34.85 12.349 34.4773 12.661C34.1133 12.9643 33.7623 13.2243 33.4243 13.441C33.095 13.649 32.7916 13.8137 32.5143 13.935C32.237 14.0477 32.0073 14.1083 31.8253 14.117C31.6953 14.1517 31.5696 14.1517 31.4483 14.117C31.327 14.0823 31.2143 14.026 31.1103 13.948C31.0063 13.87 30.924 13.7747 30.8633 13.662C30.794 13.5493 30.755 13.428 30.7463 13.298C30.7203 13.09 30.7376 12.8993 30.7983 12.726C30.8156 12.6653 30.8503 12.557 30.9023 12.401C30.9543 12.245 31.015 12.0673 31.0843 11.868C31.1536 11.66 31.2316 11.4477 31.3183 11.231C31.3963 11.0057 31.47 10.7933 31.5393 10.594C31.6173 10.386 31.6866 10.2083 31.7473 10.061C31.808 9.905 31.8513 9.79667 31.8773 9.736C32.0246 9.46733 32.211 9.36767 32.4363 9.437C32.5576 9.48033 32.64 9.55833 32.6833 9.671C32.7353 9.775 32.7353 9.90067 32.6833 10.048C32.614 10.2473 32.5576 10.4077 32.5143 10.529C32.471 10.6417 32.432 10.7413 32.3973 10.828C32.3626 10.9147 32.328 11.0013 32.2933 11.088C32.2586 11.1747 32.2196 11.2873 32.1763 11.426C32.133 11.5647 32.0766 11.738 32.0073 11.946C31.9466 12.154 31.8686 12.4227 31.7733 12.752C31.756 12.778 31.7473 12.8083 31.7473 12.843C31.756 12.869 31.7603 12.908 31.7603 12.96ZM32.4753 8.41C32.5533 8.098 32.653 7.786 32.7743 7.474C32.8956 7.162 33.0733 6.876 33.3073 6.616C33.4026 6.512 33.5066 6.45567 33.6193 6.447C33.732 6.43833 33.836 6.46867 33.9313 6.538C34.1306 6.70267 34.1393 6.915 33.9573 7.175C33.6713 7.57367 33.4893 8.02433 33.4113 8.527C33.3593 8.87367 33.199 9.034 32.9303 9.008C32.8003 8.99067 32.692 8.93 32.6053 8.826C32.5186 8.71333 32.4753 8.57467 32.4753 8.41Z" fill="url(#paint0_linear_58_1551)"/>
<path d="M0.667586 21.9C0.667586 17.922 0.615586 12.8 6.28359 12.8C10.3656 12.8 11.4836 15.478 11.7956 18.442C11.8216 18.624 11.7176 18.806 11.5356 18.858L7.89559 20.054C7.76559 20.08 7.63559 20.08 7.53159 20.002C7.42759 19.924 7.37559 19.82 7.34959 19.69C7.27159 18.39 7.01159 17.324 6.28359 17.324C5.13959 17.324 5.16559 19.898 5.16559 21.9C5.16559 23.928 5.13959 26.502 6.28359 26.502C7.01159 26.502 7.27159 25.436 7.34959 24.136C7.37559 24.006 7.42759 23.902 7.53159 23.824C7.63559 23.746 7.76559 23.746 7.89559 23.772L11.5356 24.968C11.7176 25.02 11.8216 25.202 11.7956 25.384C11.4836 28.348 10.3656 31 6.28359 31C0.615586 31 0.667586 25.904 0.667586 21.9ZM19.1816 24.162C19.1816 22.836 18.8176 21.822 18.0636 21.822C17.3356 21.822 16.9456 22.836 16.9456 24.162C16.9456 25.488 17.3356 26.502 18.0636 26.502C18.8176 26.502 19.1816 25.488 19.1816 24.162ZM23.7056 30.61C23.7056 30.844 23.5236 31 23.2896 31.026H19.5976C19.3636 31.026 19.1816 30.844 19.1816 30.61V29.44C19.1816 29.336 19.1296 29.258 19.0516 29.258C18.9736 29.232 18.8696 29.258 18.8176 29.336C18.2196 30.402 17.3096 31 16.1396 31C13.6956 31 12.4476 28.374 12.4476 24.162C12.4476 19.95 13.6956 17.324 16.1396 17.324C17.3096 17.324 18.2196 17.922 18.8436 18.988C18.8696 19.066 18.9736 19.118 19.0516 19.092C19.1296 19.066 19.1816 18.988 19.1816 18.91V17.714C19.1816 17.506 19.3636 17.324 19.5976 17.324H23.2896C23.5236 17.324 23.7056 17.506 23.7056 17.714V30.61ZM28.8162 25.826C28.9722 25.774 29.1282 25.826 29.2322 25.956C29.9602 26.84 31.4422 26.528 31.4422 26.164C31.4422 24.916 24.7082 24.838 24.7082 21.692C24.7082 18.884 26.7882 17.324 30.2982 17.324C33.1582 17.324 35.1862 18.728 35.8362 20.782C35.8882 20.99 35.7842 21.198 35.5762 21.276L31.8842 22.472C31.7022 22.524 31.5202 22.472 31.4162 22.29C30.8702 21.38 29.1282 21.77 29.1282 22.394C29.1542 23.486 35.9402 23.226 35.9402 27.152C35.9402 29.934 33.8082 31 30.3242 31C27.4642 31 25.4362 29.596 24.8122 27.542C24.7342 27.36 24.8642 27.126 25.0462 27.048L28.8162 25.826ZM36.9829 14.152C36.9829 12.93 37.9709 11.916 39.2189 11.916C40.4669 11.916 41.4809 12.93 41.4809 14.152C41.4809 15.4 40.4669 16.414 39.2189 16.414C37.9709 16.414 36.9829 15.4 36.9829 14.152ZM36.9829 17.714C36.9829 17.506 37.1389 17.324 37.3729 17.324H41.0649C41.2989 17.324 41.4809 17.506 41.4809 17.714V30.61C41.4809 30.844 41.2989 31 41.0649 31H37.3729C37.1389 31 36.9829 30.844 36.9829 30.61V17.714ZM42.9751 17.714C42.9751 17.506 43.1311 17.324 43.3651 17.324H47.0571C47.2911 17.324 47.4731 17.506 47.4731 17.714V18.884C47.4731 18.988 47.5251 19.066 47.6031 19.092C47.6811 19.092 47.7851 19.066 47.8111 18.988C48.4351 17.922 49.3191 17.324 50.5151 17.324C52.9591 17.324 54.2331 19.95 54.2331 24.162V30.61C54.2331 30.844 54.0511 31 53.8171 31H50.1251C49.8911 31 49.7091 30.844 49.7091 30.61V24.162C49.7091 22.836 49.3191 21.822 48.5911 21.822C47.8371 21.822 47.4731 22.836 47.4731 24.162V30.61C47.4731 30.844 47.2911 31 47.0571 31H43.3651C43.1311 31 42.9751 30.844 42.9751 30.61V17.714ZM60.7694 26.502C61.3674 26.502 61.9134 26.112 61.8874 24.162C61.8874 22.212 61.3414 21.822 60.7694 21.822C60.1974 21.822 59.6514 22.212 59.6514 24.162C59.6514 26.112 60.1974 26.502 60.7694 26.502ZM55.1534 24.162C55.1534 18.494 57.8574 17.324 60.7694 17.324C63.6814 17.324 66.4114 18.494 66.4114 24.162C66.4114 29.856 63.6814 31 60.7694 31C57.8574 31 55.1534 29.856 55.1534 24.162Z" fill="#403939"/>
<defs>
<linearGradient id="paint0_linear_58_1551" x1="17" y1="7.5" x2="37" y2="12.5" gradientUnits="userSpaceOnUse">
<stop stop-color="#E83B3D"/>
<stop offset="1" stop-color="#BD49F2"/>
</linearGradient>
</defs>
</svg>
